<?xml version="1.0" encoding="iso-8859-1"?>
<!-- Generator: Adobe Illustrator 19.0.0, SVG Export Plug-In . SVG Version: 6.00 Build 0)  -->
<svg xmlns="http://www.w3.org/2000/svg" xmlns:xlink="http://www.w3.org/1999/xlink" version="1.1" id="Layer_1" x="0px" y="0px" viewBox="0 0 512 512" style="enable-background:new 0 0 512 512;" xml:space="preserve" width="512" height="512">
<g>
	<g>
		<g>
			<g>
				<path style="fill:#8C4A37;" d="M30,330.992v150h452v-150H30z"/>
				<rect x="60" y="330.992" style="fill:#FFF5F5;" width="392" height="120"/>
			</g>
		</g>
	</g>
	<rect x="256" y="330.992" style="fill:#663325;" width="226" height="150"/>
	<rect x="256" y="330.992" style="fill:#EFE2DD;" width="196" height="120"/>
	<g>
		<rect x="91" y="345.992" style="fill:#663325;" width="30" height="75"/>
	</g>
	<g>
		<rect x="151" y="345.992" style="fill:#663325;" width="30" height="75"/>
	</g>
	<g>
		<rect x="241" y="345.992" style="fill:#663325;" width="30" height="75"/>
	</g>
	<rect x="301" y="345.992" style="fill:#3C1B13;" width="30" height="75"/>
	<g>
		<rect x="391" y="345.992" style="fill:#3C1B13;" width="30" height="75"/>
	</g>
	<g>
		<path style="fill:#8C4A37;" d="M512,255.992v105H0V202.291C0,111.692,68.8,36.692,155.501,31.293    c36.299-2.1,71.1,7.5,100.499,26.1c20.4,13.499,38.101,31.5,51.301,53.399c15.298,25.201,39.899,40.201,65.999,40.201H406    C463.9,150.992,512,198.092,512,255.992z"/>
	</g>
	<rect x="256" y="345.992" style="fill:#3C1B13;" width="15" height="75"/>
	<path style="fill:#663325;" d="M512,255.992v105H256v-303.6c20.4,13.499,38.101,31.5,51.301,53.399   c15.298,25.201,39.899,40.201,65.999,40.201H406C463.9,150.992,512,198.092,512,255.992z"/>
</g>















</svg>
